<?xml version="1.0" encoding="utf-8"?>
<!-- Generator: Adobe Illustrator 26.0.2, SVG Export Plug-In . SVG Version: 6.00 Build 0)  -->
<svg version="1.1" id="Layer_1" xmlns="http://www.w3.org/2000/svg" xmlns:xlink="http://www.w3.org/1999/xlink" x="0px" y="0px"
	 viewBox="0 0 178.2 24" style="enable-background:new 0 0 178.2 24;" xml:space="preserve">
<style type="text/css">
	.st0{fill:#0095FF;}
	.st1{clip-path:url(#Shape_00000176025504367203182960000001867906855932925103_);}
	.st2{fill:#FFFFFF;}
	.st3{fill:#FFFFFF;stroke:#E5E5E5;}
	.st4{fill:#E7001A;}
	.st5{fill:#F49B1C;}
	.st6{opacity:0.3;fill-rule:evenodd;clip-rule:evenodd;fill:#E7001A;enable-background:new    ;}
	.st7{fill:#27337A;}
	.st8{fill:#2B4982;}
	.st9{fill:#FFFFFF;stroke:#D9D9D9;}
	.st10{fill:#253B80;}
	.st11{fill:#179BD7;}
	.st12{fill:#222D65;}
	.st13{fill:none;stroke:#D9D9D9;}
	.st14{fill:#E5853C;}
	.st15{fill:#221F20;}
	.st16{fill:url(#XMLID_00000043452110104110657340000007316578912375521461_);}
	.st17{opacity:0.65;fill:url(#XMLID_00000098927750744349517390000008557562269492758424_);enable-background:new    ;}
</style>
<g id="Page-1">
	<g id="amex">
		<path id="Shape" class="st0" d="M74.2,0h23.7c2.1,0.1,3.7,1.8,3.6,3.8c0,0,0,0,0,0v16.3c0.1,2.1-1.6,3.8-3.6,3.8c0,0,0,0,0,0H74.2
			c-2.1-0.1-3.7-1.8-3.6-3.8c0,0,0,0,0,0V3.8C70.5,1.8,72.1,0.1,74.2,0C74.2,0,74.2,0,74.2,0z"/>
		<g>
			<defs>
				<path id="Shape_00000168077718432989682650000017253105772881694082_" d="M74.2,0h23.7c2.1,0.1,3.7,1.8,3.6,3.8c0,0,0,0,0,0
					v16.3c0.1,2.1-1.6,3.8-3.6,3.8c0,0,0,0,0,0H74.2c-2.1-0.1-3.7-1.8-3.6-3.8c0,0,0,0,0,0V3.8C70.5,1.8,72.1,0.1,74.2,0
					C74.2,0,74.2,0,74.2,0z"/>
			</defs>
			<clipPath id="Shape_00000100344651658714232320000003285694265161148294_">
				<use xlink:href="#Shape_00000168077718432989682650000017253105772881694082_"  style="overflow:visible;"/>
			</clipPath>
			<g id="Clipped" style="clip-path:url(#Shape_00000100344651658714232320000003285694265161148294_);">
				<g id="Group-Clipped">
					<g>
						<g id="Group">
							<g id="Shape-2">
								<path class="st2" d="M72.4,9.6L71.7,8l-0.6,1.7L72.4,9.6z M86.1,8.9C86,9,85.9,9,85.8,9h-1.2V8.1h1.2c0.1,0,0.3,0,0.3,0.1
									c0.1,0,0.2,0.1,0.2,0.2c0,0,0,0,0,0C86.3,8.7,86.3,8.9,86.1,8.9z M94.2,9.6L93.6,8L93,9.7L94.2,9.6z M79.4,11.5h-0.9V8.2
									L77,11.5h-0.8l-1.3-3.3v3.3h-2l-0.3-0.9h-1.8l-0.3,0.9h-1L71,7.3h1.4l1.6,3.9V7.3h1.5l1.2,2.8l1.1-2.8h1.5V11.5z M83.1,11.5
									h-3V7.3h3v0.9H81V9h2.1v0.9H81v0.8h2.1L83.1,11.5z M87.5,8.5c0,0.5-0.3,0.9-0.7,1.1c0.2,0,0.3,0.1,0.5,0.2
									c0.2,0.3,0.2,0.6,0.2,0.9v0.8h-1V11c0-0.3-0.1-0.6-0.2-0.9C86.1,10,85.9,10,85.8,10h-1v1.5h-0.9V7.3h2.1
									c0.4-0.1,0.8,0,1.2,0.2C87.4,7.8,87.6,8.1,87.5,8.5L87.5,8.5z M88.9,11.5H88V7.3h0.9V11.5z M99.8,11.5h-1.3l-1.8-3.2v3.2
									h-1.9l-0.5-0.9h-1.9l-0.3,0.9h-1c-0.5,0-1-0.2-1.4-0.5c-0.3-0.4-0.5-1-0.5-1.5c0-0.6,0.1-1.2,0.5-1.7
									c0.4-0.4,0.9-0.6,1.4-0.5h0.9v0.9h-0.9c-0.3,0-0.5,0.1-0.7,0.2c-0.2,0.3-0.2,0.7-0.2,1c0,0.3,0.1,0.6,0.2,0.9
									c0.2,0.2,0.4,0.3,0.7,0.2h0.3l1.4-3.3h1.3l1.6,3.9V7.3h1.4l1.6,2.9V7.3h0.9L99.8,11.5z M69.4,12.3H71l0.3-0.9H72l0.3,0.9
									h3.2v-0.8l0.3,0.8h1.5l0.3-0.8v0.8h7.7v-1.5h0.1c0.1,0,0.2,0,0.1,0.2v1.3h4.1v-0.4c0.4,0.3,0.9,0.4,1.4,0.4h1.7l0.3-0.9H94
									l0.3,0.9h3.2v-0.9l0.5,0.9h2.6V6.5h-2.6v0.6l-0.3-0.6h-2.7v0.6l-0.3-0.6h-3.5c-0.5,0-1.1,0.1-1.5,0.4V6.5h-2.4v0.4
									c-0.3-0.3-0.6-0.4-1-0.4h-9L76.6,8L76,6.5h-2.8v0.6l-0.3-0.6h-2.3l-1.2,2.8L69.4,12.3z M102.4,14.6h-1.8
									c-0.1,0-0.3,0-0.3,0.1c-0.1,0-0.1,0.1-0.1,0.2c0,0.1,0.1,0.2,0.2,0.3c0.1,0.1,0.2,0.1,0.3,0.1h0.5c0.4-0.1,0.7,0,1,0.2
									c0,0,0.1,0.1,0.1,0.1L102.4,14.6z M102.4,17.3c-0.3,0.4-0.8,0.6-1.3,0.6h-1.8v-1h1.8c0.1,0,0.2,0,0.3,0
									c0.1-0.1,0.2-0.2,0.1-0.4c0-0.1,0-0.2-0.1-0.3c-0.1,0-0.2,0-0.2,0c-0.9-0.1-2,0-2-1.4c-0.1-0.6,0.4-1.1,1-1.2
									c0.1,0,0.2,0,0.3,0h1.9v-0.9h-1.8c-0.4,0-0.8,0.1-1.2,0.4v-0.4h-2.4c-0.4,0-0.8,0.1-1.2,0.4v-0.4h-4.5v0.4
									c-0.3-0.3-0.7-0.4-1.2-0.4h-3v0.4c-0.3-0.3-0.9-0.4-1.3-0.4h-3.4l-0.7,0.9l-0.7-0.9h-5v5.8H81l0.8-0.9l0.7,0.9h3v-1.4h0.2
									c0.4,0,0.9,0,1.3-0.1v1.5h2.6v-1.5h0.1c0.1,0,0.2,0,0.1,0.1v1.4h7.6c0.5,0,0.9-0.1,1.3-0.4v0.4h2.3c0.5,0,1-0.1,1.4-0.3
									L102.4,17.3z M98.8,15.8c0.2,0.3,0.3,0.6,0.2,0.9c0,0.8-0.5,1.3-1.5,1.3h-1.7V17h1.8c0.2,0,0.3,0,0.5-0.1l0.1-0.2
									c0-0.1-0.1-0.2-0.1-0.3c-0.1-0.1-0.2-0.1-0.3-0.1c-0.9,0-2,0-2-1.3c0-0.7,0.4-1.2,1.1-1.3c0.1,0,0.1,0,0.2,0h1.9v0.9h-1.6
									c-0.2,0-0.3,0-0.3,0.1s-0.2,0.1-0.2,0.2s0.1,0.3,0.2,0.3c0.1,0.1,0.2,0.1,0.3,0.1h0.6C98.2,15.3,98.5,15.5,98.8,15.8z
									 M90.3,15.2c-0.1,0.1-0.2,0.2-0.3,0.1h-1.2v-0.9H90c0.1,0,0.3,0,0.3,0.1c0.1,0,0.2,0.1,0.2,0.2c0,0,0,0,0,0
									C90.6,15.1,90.5,15.2,90.3,15.2L90.3,15.2z M90.9,16c0.2,0,0.3,0.1,0.5,0.2c0.1,0.2,0.2,0.5,0.2,0.8v0.9h-0.9v-0.5
									c0-0.3-0.1-0.6-0.2-0.9c-0.1-0.1-0.3-0.1-0.7-0.1h-0.9v1.5h-0.9v-4.2H90c0.4,0,0.8,0,1.2,0.2c0.3,0.2,0.5,0.5,0.5,0.9
									C91.6,15.3,91.3,15.8,90.9,16L90.9,16z M92.2,13.7h3v0.9h-2.1v0.8h2.1v0.9h-2.1V17h2.1v0.9h-3L92.2,13.7z M85.9,15.5h-1.2
									v-1h1.2c0.3,0,0.6,0.1,0.6,0.5S86.3,15.5,85.9,15.5z M83.8,17.4l-1.4-1.6l1.4-1.6V17.4z M80.2,16.9h-2.3v-0.8H80v-0.9h-2.1
									v-0.8h2.3l1,1.1L80.2,16.9z M87.4,15.1c0,1.2-0.8,1.4-1.6,1.4h-1.2v1.4h-1.8l-1.2-1.4l-1.2,1.4H77v-4.2h3.7l1,1.4l1.2-1.4h3
									C86.6,13.7,87.4,14,87.4,15.1z"/>
							</g>
						</g>
					</g>
				</g>
			</g>
		</g>
	</g>
	<g id="mastercard">
		<path id="Shape-3" class="st3" d="M38.8,0.5h23.7c2,0,3.6,1.7,3.6,3.7c0,0,0,0,0,0v15.7c0,2-1.6,3.7-3.6,3.7c0,0,0,0,0,0H38.8
			c-2,0-3.6-1.7-3.6-3.7c0,0,0,0,0,0V4.2C35.2,2.2,36.8,0.5,38.8,0.5C38.8,0.5,38.8,0.5,38.8,0.5z"/>
		<path id="Shape-4" class="st4" d="M47.6,17.2c2.9,0,5.2-2.3,5.3-5.2s-2.3-5.2-5.2-5.3c-2.9,0-5.2,2.3-5.3,5.2c0,0,0,0,0,0.1
			C42.4,14.9,44.7,17.2,47.6,17.2C47.6,17.2,47.6,17.2,47.6,17.2z"/>
		<path id="Shape-5" class="st5" d="M53.8,17.2c2.9,0,5.2-2.3,5.3-5.2s-2.3-5.2-5.2-5.3c-2.9,0-5.2,2.3-5.3,5.2c0,0,0,0,0,0.1
			C48.6,14.9,50.9,17.2,53.8,17.2C53.8,17.2,53.8,17.2,53.8,17.2z"/>
		<path id="Shape-6" class="st6" d="M50.7,7.8c2.3,1.8,2.7,5.1,1,7.4c-0.3,0.4-0.6,0.7-1,1c-2.3-1.8-2.7-5.1-1-7.4
			C50,8.4,50.3,8.1,50.7,7.8z"/>
	</g>
	<g id="visa">
		<path id="Shape-7" class="st7" d="M27.3,0H4.1C1.9,0,0.2,1.8,0.2,4c0,0,0,0,0,0v16c0,2.2,1.7,4,3.9,4c0,0,0,0,0,0h23.2
			c2.2,0,3.9-1.8,3.9-4c0,0,0,0,0,0V4C31.2,1.8,29.5,0,27.3,0C27.3,0,27.3,0,27.3,0z"/>
		<path id="Shape-8" class="st2" d="M16,10.9c0.1,0.7,0.5,1.3,1.2,1.6c0.5,0.3,0.7,0.5,0.7,0.7s-0.4,0.6-0.8,0.6
			c-0.5,0-1-0.1-1.4-0.4l-0.2,1.3c0.5,0.2,1,0.3,1.5,0.3c1.5,0,2.4-0.8,2.4-2c0-1.5-1.9-1.6-1.9-2.3c0-0.2,0.2-0.4,0.6-0.5
			c0.5,0,0.9,0,1.4,0.3l0.2-1.2C19.2,9.1,18.8,9,18.3,9c-1.1-0.1-2.2,0.7-2.3,1.8C16,10.8,16,10.9,16,10.9z M21.9,9.1
			c-0.3,0-0.5,0.2-0.6,0.4l-2.1,5.4h1.4L21,14h1.8l0.2,0.9h1.3l-1.1-5.8L21.9,9.1z M22.1,10.7l0.4,2.2h-1.1L22.1,10.7z M14.2,9.1
			l-1.1,5.8h1.4l1.1-5.8H14.2z M12.2,9.1l-1.4,4l-0.6-3.4c0-0.3-0.3-0.6-0.6-0.6H7.2v0.2c0.5,0.1,0.9,0.3,1.4,0.5
			c0.2,0.1,0.3,0.3,0.3,0.5l1.1,4.6h1.4l2.2-5.8H12.2z"/>
	</g>
</g>
<path class="st8" d="M150.2,23.2l27.2-6.9V21l-0.8,1.7l-1.6,0.6C174.9,23.3,150,23.2,150.2,23.2z"/>
<path class="st9" d="M146.4,0.8h28.1c1.5,0,2.7,1.2,2.7,2.7v17.5c0,1.5-1.2,2.7-2.7,2.7h-28.1c-1.5,0-2.7-1.2-2.7-2.7V3.4
	C143.7,2,144.9,0.8,146.4,0.8z"/>
<g>
	<path class="st10" d="M157.1,9.7h-1.5c-0.1,0-0.2,0.1-0.2,0.2l-0.6,3.9c0,0.1,0,0.1,0.1,0.1h0.7c0.1,0,0.2-0.1,0.2-0.2l0.2-1.1
		c0-0.1,0.1-0.2,0.2-0.2h0.5c1,0,1.6-0.5,1.7-1.5c0.1-0.4,0-0.8-0.2-1C158,9.8,157.6,9.7,157.1,9.7z M157.3,11.1
		c-0.1,0.5-0.5,0.5-0.9,0.5h-0.2l0.2-1c0-0.1,0.1-0.1,0.1-0.1h0.1c0.3,0,0.5,0,0.7,0.2C157.3,10.8,157.3,10.9,157.3,11.1z"/>
	<path class="st10" d="M161.7,11.1H161c-0.1,0-0.1,0-0.1,0.1l0,0.2l-0.1-0.1c-0.2-0.2-0.5-0.3-0.9-0.3c-0.8,0-1.5,0.6-1.6,1.5
		c-0.1,0.4,0,0.8,0.3,1.1c0.2,0.3,0.5,0.4,0.9,0.4c0.7,0,1-0.4,1-0.4l0,0.2c0,0.1,0,0.1,0.1,0.1h0.7c0.1,0,0.2-0.1,0.2-0.2l0.4-2.5
		C161.8,11.2,161.8,11.1,161.7,11.1z M160.7,12.5c-0.1,0.4-0.4,0.7-0.8,0.7c-0.2,0-0.4-0.1-0.5-0.2c-0.1-0.1-0.1-0.3-0.1-0.5
		c0.1-0.4,0.4-0.7,0.8-0.7c0.2,0,0.4,0.1,0.5,0.2C160.7,12.1,160.7,12.3,160.7,12.5z"/>
	<path class="st10" d="M165.6,11.1h-0.7c-0.1,0-0.1,0-0.2,0.1l-1,1.5l-0.4-1.4c0-0.1-0.1-0.2-0.2-0.2h-0.7c-0.1,0-0.1,0.1-0.1,0.2
		l0.8,2.4l-0.8,1.1c-0.1,0.1,0,0.2,0.1,0.2h0.7c0.1,0,0.1,0,0.2-0.1l2.4-3.5C165.7,11.2,165.7,11.1,165.6,11.1z"/>
	<path class="st11" d="M168,9.7h-1.5c-0.1,0-0.2,0.1-0.2,0.2l-0.6,3.9c0,0.1,0,0.1,0.1,0.1h0.8c0.1,0,0.1-0.1,0.1-0.1l0.2-1.1
		c0-0.1,0.1-0.2,0.2-0.2h0.5c1,0,1.6-0.5,1.7-1.5c0.1-0.4,0-0.8-0.2-1C168.9,9.8,168.5,9.7,168,9.7z M168.2,11.1
		c-0.1,0.5-0.5,0.5-0.9,0.5h-0.2l0.2-1c0-0.1,0.1-0.1,0.1-0.1h0.1c0.3,0,0.5,0,0.7,0.2C168.2,10.8,168.2,10.9,168.2,11.1z"/>
	<path class="st11" d="M172.6,11.1h-0.7c-0.1,0-0.1,0-0.1,0.1l0,0.2l-0.1-0.1c-0.2-0.2-0.5-0.3-0.9-0.3c-0.8,0-1.5,0.6-1.6,1.5
		c-0.1,0.4,0,0.8,0.3,1.1c0.2,0.3,0.5,0.4,0.9,0.4c0.7,0,1-0.4,1-0.4l0,0.2c0,0.1,0,0.1,0.1,0.1h0.7c0.1,0,0.2-0.1,0.2-0.2l0.4-2.5
		C172.7,11.2,172.7,11.1,172.6,11.1z M171.6,12.5c-0.1,0.4-0.4,0.7-0.8,0.7c-0.2,0-0.4-0.1-0.5-0.2c-0.1-0.1-0.1-0.3-0.1-0.5
		c0.1-0.4,0.4-0.7,0.8-0.7c0.2,0,0.4,0.1,0.5,0.2C171.5,12.1,171.6,12.3,171.6,12.5z"/>
	<path class="st11" d="M173.4,9.8l-0.6,4c0,0.1,0,0.1,0.1,0.1h0.6c0.1,0,0.2-0.1,0.2-0.2l0.6-3.9c0-0.1,0-0.1-0.1-0.1h-0.7
		C173.5,9.7,173.5,9.7,173.4,9.8z"/>
	<path class="st10" d="M148.4,14.7l0.1-0.7l-0.3,0H147l0.9-5.5c0,0,0,0,0,0c0,0,0,0,0,0h2.1c0.7,0,1.2,0.1,1.4,0.4
		c0.1,0.1,0.2,0.3,0.2,0.4c0,0.2,0,0.4,0,0.6l0,0V10l0.1,0.1c0.1,0.1,0.2,0.1,0.2,0.2c0.1,0.1,0.2,0.3,0.2,0.4c0,0.2,0,0.4,0,0.6
		c-0.1,0.3-0.1,0.5-0.3,0.7c-0.1,0.2-0.2,0.3-0.4,0.4c-0.2,0.1-0.3,0.2-0.5,0.2c-0.2,0.1-0.4,0.1-0.7,0.1h-0.2c-0.1,0-0.2,0-0.3,0.1
		c-0.1,0.1-0.1,0.2-0.2,0.3l0,0.1l-0.2,1.3l0,0c0,0,0,0,0,0c0,0,0,0,0,0C149.4,14.7,148.4,14.7,148.4,14.7z"/>
	<path class="st11" d="M151.9,9.9L151.9,9.9L151.9,9.9c0,0,0,0.1,0,0.1c-0.3,1.4-1.2,1.9-2.4,1.9h-0.6c-0.1,0-0.3,0.1-0.3,0.3l0,0
		l0,0l-0.3,2l-0.1,0.6c0,0.1,0.1,0.2,0.2,0.2h1.1c0.1,0,0.2-0.1,0.3-0.2l0-0.1l0.2-1.3l0-0.1c0-0.1,0.1-0.2,0.3-0.2h0.2
		c1.1,0,1.9-0.4,2.1-1.7c0.1-0.5,0-1-0.2-1.3C152.2,10,152.1,9.9,151.9,9.9z"/>
	<path class="st12" d="M151.7,9.8c0,0-0.1,0-0.1,0c0,0-0.1,0-0.1,0c-0.2,0-0.3,0-0.5,0h-1.6c0,0-0.1,0-0.1,0c-0.1,0-0.1,0.1-0.1,0.2
		l-0.3,2.2l0,0.1c0-0.1,0.1-0.3,0.3-0.3h0.6c1.2,0,2.2-0.5,2.4-1.9c0,0,0-0.1,0-0.1C151.9,9.8,151.8,9.8,151.7,9.8
		C151.7,9.8,151.7,9.8,151.7,9.8z"/>
	<path class="st10" d="M148.9,9.9c0-0.1,0.1-0.2,0.1-0.2c0,0,0.1,0,0.1,0h1.6c0.2,0,0.4,0,0.5,0c0,0,0.1,0,0.1,0c0,0,0.1,0,0.1,0
		c0,0,0,0,0.1,0c0.1,0,0.2,0.1,0.2,0.1c0.1-0.5,0-0.9-0.3-1.2c-0.3-0.4-0.9-0.5-1.6-0.5H148c-0.1,0-0.3,0.1-0.3,0.3l-0.9,5.5
		c0,0.1,0.1,0.2,0.2,0.2h1.3l0.3-2.1L148.9,9.9z"/>
</g>
<path class="st8" d="M150,23.6l27.2-6.9v4.7l-0.9,1.7l-1.6,0.6C174.8,23.7,149.8,23.6,150,23.6z"/>
<path class="st13" d="M146.4,0.8h28.1c1.5,0,2.7,1.2,2.7,2.7v17.5c0,1.5-1.2,2.7-2.7,2.7h-28.1c-1.5,0-2.7-1.2-2.7-2.7V3.4
	C143.7,2,144.9,0.8,146.4,0.8z"/>
<path class="st8" d="M112.4,23l27.2-6.9v4.7l-0.8,1.7l-1.6,0.6C137.1,23.1,112.2,23,112.4,23z"/>
<path class="st9" d="M108.6,0.5h28.1c1.5,0,2.7,1.2,2.7,2.7v17.5c0,1.5-1.2,2.7-2.7,2.7h-28.1c-1.5,0-2.7-1.2-2.7-2.7V3.2
	C105.9,1.7,107.1,0.5,108.6,0.5z"/>
<g>
	<path id="XMLID_427_" class="st14" d="M138.9,14c0,0-8.9,6.2-25.1,9h25.1V14z"/>
	<path class="st15" d="M109.3,8.7h-1.3v4.7h1.3c0.7,0,1.2-0.2,1.7-0.5c0.5-0.4,0.9-1.1,0.9-1.8C111.8,9.7,110.8,8.7,109.3,8.7z
		 M110.4,12.3c-0.3,0.3-0.7,0.4-1.3,0.4h-0.2V9.6h0.2c0.6,0,1,0.1,1.3,0.4c0.3,0.3,0.5,0.7,0.5,1.2C110.9,11.6,110.7,12,110.4,12.3z
		"/>
	<rect id="XMLID_422_" x="112.3" y="8.7" class="st15" width="0.9" height="4.7"/>
	<path id="XMLID_421_" class="st15" d="M115.4,10.6c-0.5-0.2-0.7-0.3-0.7-0.6c0-0.3,0.3-0.5,0.7-0.5c0.3,0,0.5,0.1,0.7,0.4l0.5-0.6
		c-0.4-0.3-0.9-0.5-1.4-0.5c-0.8,0-1.5,0.6-1.5,1.4c0,0.7,0.3,1,1.2,1.3c0.4,0.1,0.5,0.2,0.6,0.3c0.2,0.1,0.3,0.3,0.3,0.5
		c0,0.4-0.3,0.7-0.7,0.7c-0.4,0-0.8-0.2-1-0.6l-0.6,0.6c0.4,0.6,0.9,0.9,1.6,0.9c1,0,1.6-0.6,1.6-1.6
		C116.8,11.3,116.5,10.9,115.4,10.6z"/>
	<path id="XMLID_420_" class="st15" d="M117.1,11.1c0,1.4,1.1,2.5,2.5,2.5c0.4,0,0.7-0.1,1.2-0.3v-1.1c-0.4,0.4-0.7,0.5-1.1,0.5
		c-0.9,0-1.6-0.7-1.6-1.6c0-0.9,0.7-1.6,1.5-1.6c0.4,0,0.8,0.2,1.2,0.5V8.9c-0.4-0.2-0.7-0.3-1.1-0.3
		C118.2,8.6,117.1,9.7,117.1,11.1z"/>
	<polygon id="XMLID_419_" class="st15" points="128,11.9 126.8,8.7 125.8,8.7 127.8,13.6 128.3,13.6 130.3,8.7 129.3,8.7 	"/>
	<polygon id="XMLID_418_" class="st15" points="130.7,13.5 133.3,13.5 133.3,12.7 131.6,12.7 131.6,11.4 133.3,11.4 133.3,10.6 
		131.6,10.6 131.6,9.6 133.3,9.6 133.3,8.7 130.7,8.7 	"/>
	<path class="st15" d="M137,10.1c0-0.9-0.6-1.4-1.7-1.4H134v4.7h0.9v-1.9h0.1l1.3,1.9h1.1l-1.5-2C136.6,11.3,137,10.9,137,10.1z
		 M135.1,10.9h-0.3V9.5h0.3c0.6,0,0.9,0.2,0.9,0.7C136,10.7,135.7,10.9,135.1,10.9z"/>
	
		<linearGradient id="XMLID_00000056392450496267658760000003846219515279840940_" gradientUnits="userSpaceOnUse" x1="124.8335" y1="593.1373" x2="123.0935" y2="590.413" gradientTransform="matrix(1 0 0 1 0 -580)">
		<stop  offset="0" style="stop-color:#EBA142"/>
		<stop  offset="0.2502" style="stop-color:#EA9C41"/>
		<stop  offset="0.5331" style="stop-color:#E8903E"/>
		<stop  offset="0.6196" style="stop-color:#E68A3D"/>
		<stop  offset="0.7232" style="stop-color:#E5853C"/>
		<stop  offset="1" style="stop-color:#E37B3A"/>
	</linearGradient>
	
		<circle id="XMLID_415_" style="fill:url(#XMLID_00000056392450496267658760000003846219515279840940_);" cx="123.5" cy="11.1" r="2.5"/>
	
		<linearGradient id="XMLID_00000085215178671168079550000016766348448593378704_" gradientUnits="userSpaceOnUse" x1="124.5588" y1="593.1006" x2="122.0158" y2="588.1302" gradientTransform="matrix(1 0 0 1 0 -580)">
		<stop  offset="0" style="stop-color:#E68A3D"/>
		<stop  offset="0.3587" style="stop-color:#D2743A"/>
		<stop  offset="0.703" style="stop-color:#C5663A"/>
		<stop  offset="0.9816" style="stop-color:#C1613B"/>
	</linearGradient>
	
		<circle id="XMLID_414_" style="opacity:0.65;fill:url(#XMLID_00000085215178671168079550000016766348448593378704_);enable-background:new    ;" cx="123.5" cy="11.1" r="2.5"/>
	<g id="XMLID_436_">
		<path class="st15" d="M137.6,8.9c0-0.1-0.1-0.1-0.2-0.1h-0.1v0.4h0.1V9l0.1,0.2h0.1L137.5,9C137.5,9,137.6,9,137.6,8.9z M137.4,9
			L137.4,9l0-0.1h0C137.5,8.9,137.5,8.9,137.4,9C137.5,9,137.5,9,137.4,9z"/>
		<path class="st15" d="M137.4,8.6c-0.2,0-0.4,0.2-0.4,0.4c0,0.2,0.2,0.4,0.4,0.4s0.4-0.2,0.4-0.4C137.8,8.8,137.6,8.6,137.4,8.6z
			 M137.4,9.3c-0.2,0-0.3-0.1-0.3-0.3c0-0.2,0.1-0.3,0.3-0.3c0.2,0,0.3,0.1,0.3,0.3C137.7,9.2,137.6,9.3,137.4,9.3z"/>
	</g>
</g>
<path class="st13" d="M108.6,0.5h28.1c1.5,0,2.7,1.2,2.7,2.7v17.5c0,1.5-1.2,2.7-2.7,2.7h-28.1c-1.5,0-2.7-1.2-2.7-2.7V3.2
	C105.9,1.7,107.1,0.5,108.6,0.5z"/>
</svg>
