<?xml version="1.0" encoding="iso-8859-1"?>
<!-- Generator: Adobe Illustrator 19.0.0, SVG Export Plug-In . SVG Version: 6.00 Build 0)  -->
<svg version="1.1" id="Layer_1" xmlns="http://www.w3.org/2000/svg" xmlns:xlink="http://www.w3.org/1999/xlink" x="0px" y="0px"
	 viewBox="0 0 512.001 512.001" style="enable-background:new 0 0 512.001 512.001;" xml:space="preserve">
<g>
	<g>
		<path d="M402.37,138.482c-2.811-12.911-7.057-25.167-12.619-36.428c-2.256-4.569-7.789-6.443-12.36-4.187
			c-4.569,2.256-6.443,7.791-4.187,12.36c4.897,9.914,8.643,20.74,11.134,32.183c3.088,14.178,4.654,28.799,4.654,43.454
			c0,85.172-53.312,161.423-132.996,190.768C176.313,347.288,123,271.036,123,185.864c0-14.653,1.566-29.274,4.654-43.454
			c10.406-47.776,42.625-82.993,88.399-96.62c47.366-14.1,99.626-1.897,133.129,31.093c3.631,3.575,9.473,3.53,13.049-0.101
			c3.575-3.632,3.53-9.473-0.101-13.049c-38.224-37.635-97.629-51.621-151.344-35.631c-52.409,15.603-89.283,55.833-101.162,110.378
			c-3.369,15.47-5.077,31.411-5.077,47.382c0,94.086,59.637,178.19,148.401,209.28c0.988,0.346,2.019,0.519,3.05,0.519
			c1.031,0,2.063-0.173,3.05-0.519c88.762-31.091,148.4-115.194,148.4-209.281C407.447,169.889,405.738,153.948,402.37,138.482z"/>
	</g>
</g>
<g>
	<g>
		<path d="M255.998,103.526c-39.102,0-70.914,31.813-70.914,70.914c0,39.102,31.812,70.915,70.914,70.915
			c39.102,0,70.914-31.812,70.914-70.915C326.912,135.337,295.1,103.526,255.998,103.526z M255.998,226.901
			c-28.927,0-52.46-23.533-52.46-52.461c0-28.927,23.533-52.46,52.46-52.46c28.927,0,52.46,23.534,52.46,52.46
			C308.457,203.366,284.924,226.901,255.998,226.901z"/>
	</g>
</g>
<g>
	<g>
		<path d="M439.106,450.133c-1.827-4.758-7.163-7.133-11.923-5.306c-45.58,17.501-106.374,27.139-171.185,27.139
			c-64.814,0-125.611-9.638-171.188-27.139c-42.17-16.193-66.356-37.476-66.356-58.391c0-25.39,36.285-51.33,94.693-67.701
			c4.908-1.375,7.769-6.468,6.395-11.375c-1.375-4.906-6.465-7.772-11.375-6.395C39.426,320.231,0,351.383,0,386.436
			c0,29.4,27.77,56.257,78.196,75.619C125.833,480.347,188.978,490.42,256,490.42c67.017,0,130.159-10.074,177.8-28.366
			C438.557,460.229,440.933,454.891,439.106,450.133z"/>
	</g>
</g>
<g>
	<g>
		<path d="M403.178,300.783c-4.908-1.367-9.997,1.505-11.363,6.415c-1.367,4.909,1.505,9.996,6.415,11.363
			c58.793,16.368,95.317,42.375,95.317,67.874c0,17.353-16.397,31.614-30.153,40.521c-4.278,2.769-5.501,8.483-2.73,12.761
			c1.767,2.729,4.729,4.214,7.753,4.214c1.718,0,3.457-0.48,5.006-1.484c25.238-16.341,38.578-35.709,38.578-56.01
			C512,351.255,472.335,320.035,403.178,300.783z"/>
	</g>
</g>
<g>
</g>
<g>
</g>
<g>
</g>
<g>
</g>
<g>
</g>
<g>
</g>
<g>
</g>
<g>
</g>
<g>
</g>
<g>
</g>
<g>
</g>
<g>
</g>
<g>
</g>
<g>
</g>
<g>
</g>
</svg>
